<svg xmlns="http://www.w3.org/2000/svg" width="16" height="20" viewBox="0 0 16 20"><defs><style>.a,.b,.e{fill:none;}.a,.b{stroke-miterlimit:10;}.b{stroke:#fff;stroke-width:2px;}.c,.d{stroke:none;}.d{fill:#fff;}</style></defs><g transform="translate(-413.076 -92.441)"><g class="a" transform="translate(0 0)"><path class="c" d="M413.135,101.641c.68,5.576,7.941,10.8,7.941,10.8s7.262-5.224,7.942-10.8a8.027,8.027,0,1,0-15.883,0Z"/><path class="d" d="M 421.0761413574219 94.44100189208984 C 419.4566345214844 94.44100189208984 417.8583679199219 95.19696807861328 416.6911926269531 96.51506042480469 C 415.4811096191406 97.88162994384766 414.9085083007813 99.66175079345703 415.1203002929688 101.3990020751953 C 415.3442077636719 103.235954284668 416.6044921875 105.4170227050781 418.7649536132813 107.706413269043 C 419.6057434082031 108.5973739624023 420.4375915527344 109.3473739624023 421.0769958496094 109.8876113891602 C 421.701904296875 109.3596115112305 422.5120544433594 108.6293029785156 423.3411865234375 107.7554244995117 C 425.5303955078125 105.4480819702148 426.8067932128906 103.2500610351563 427.0324096679688 101.3992004394531 C 427.2439880371094 99.66183471679688 426.6712341308594 97.881591796875 425.4609375 96.51496124267578 C 424.293701171875 95.19692993164063 422.6954956054688 94.44100189208984 421.0761413574219 94.44100189208984 M 421.0761413574219 92.44100189208984 C 425.6833801269531 92.44100189208984 429.6056213378906 96.81412506103516 429.0177307128906 101.640998840332 C 428.3380432128906 107.2170028686523 421.0761413574219 112.4410018920898 421.0761413574219 112.4410018920898 C 421.0761413574219 112.4410018920898 413.8146667480469 107.2170028686523 413.1349792480469 101.640998840332 C 412.5466003417969 96.81412506103516 416.4687194824219 92.44100189208984 421.0761413574219 92.44100189208984 Z"/></g><g class="b" transform="translate(417.276 96.668)"><circle class="c" cx="3.789" cy="3.789" r="3.789"/><circle class="e" cx="3.789" cy="3.789" r="2.789"/></g></g></svg>